<?xml version="1.0" standalone="no"?>
<!DOCTYPE svg PUBLIC "-//W3C//DTD SVG 20010904//EN"
 "http://www.w3.org/TR/2001/REC-SVG-20010904/DTD/svg10.dtd">
<svg version="1.0" xmlns="http://www.w3.org/2000/svg"
 width="260.000000pt" height="260.000000pt" viewBox="0 0 260.000000 260.000000"
 preserveAspectRatio="xMidYMid meet">
<metadata>
Created by potrace 1.11, written by Peter Selinger 2001-2013
</metadata>
<g transform="translate(0.000000,260.000000) scale(0.100000,-0.100000)"
fill="#000000" stroke="none">
<path d="M1262 2412 c52 -121 160 -192 304 -200 l82 -4 -22 -65 -22 -64 -110
-2 c-105 -2 -113 -4 -185 -39 -134 -66 -213 -155 -273 -308 -32 -80 -35 -84
-82 -104 -176 -77 -297 -189 -383 -356 -85 -164 -112 -365 -72 -535 54 -226
186 -397 383 -496 316 -159 685 -83 911 188 61 73 131 214 158 318 43 164 23
368 -50 514 -32 63 -38 90 -22 106 20 20 52 121 61 187 12 95 -3 188 -44 273
-43 90 -98 151 -174 195 -34 19 -62 41 -62 47 0 7 24 60 52 118 56 112 57 122
10 153 -20 13 -22 12 -32 -13 l-10 -26 -43 34 c-70 57 -83 61 -202 62 -95 0
-115 3 -147 22 l-37 22 11 -27z m364 -520 c56 -29 119 -103 140 -164 26 -78
16 -195 -23 -278 -61 -130 -61 -130 -20 -196 58 -96 89 -203 89 -309 3 -425
-391 -730 -772 -598 -47 16 -111 46 -143 67 -201 134 -299 397 -238 638 54
210 193 366 389 438 l76 28 42 105 c22 58 51 121 63 140 38 63 118 124 191
148 45 15 162 4 206 -19z"/>
<path d="M1222 1226 c-72 -35 -144 -111 -189 -203 -34 -69 -38 -85 -38 -153 0
-66 5 -83 31 -130 42 -74 96 -112 169 -118 185 -15 322 177 286 403 -12 80
-54 169 -92 198 -43 31 -105 32 -167 3z"/>
</g>
</svg>
