<svg xmlns="http://www.w3.org/2000/svg" xmlns:xlink="http://www.w3.org/1999/xlink" viewBox="0 0 305 175"><defs><style>.cls-1{fill:none;}.cls-2{fill:#e01717;}.cls-3{fill:#ffd815;}.cls-4{fill:#25bc00;}.cls-5{fill:#4f5649;}.cls-6{clip-path:url(#clip-path);}.cls-7{opacity:0.4;}.cls-8{fill:#fff;}.cls-9{fill:#61bf00;opacity:0;}.cls-10{fill:#52b8fa;}</style><clipPath id="clip-path"><rect class="cls-1" x="9.17" y="31" width="291.33" height="144"/></clipPath></defs><title>2539277-0-chancometer-bg</title><g id="Layer_1" data-name="Layer 1"><path class="cls-2" d="M10.5,175H58.16A93.63,93.63,0,0,1,74.4,122.21l-36.89-30A140,140,0,0,0,10.5,175Z"/><path class="cls-3" d="M37.51,92.2l36.89,30A96.42,96.42,0,0,1,122,85.56l-21.3-42.29A144.17,144.17,0,0,0,37.51,92.2Z"/><path class="cls-4" d="M154.5,33a145.35,145.35,0,0,0-53.83,10.27L122,85.56a98,98,0,0,1,60-1.65l15.5-44.49A145.82,145.82,0,0,0,154.5,33Z"/><path class="cls-5" d="M197.42,39.41l-15.5,44.49a96.48,96.48,0,0,1,50.35,35l34.05-33.4A144.27,144.27,0,0,0,197.42,39.41Z"/><path d="M250.84,175H298.5a140.19,140.19,0,0,0-32.18-89.47l-34.05,33.4A93.69,93.69,0,0,1,250.84,175Z"/><g class="cls-6"><g class="cls-7"><polygon class="cls-8" points="24.36 172.45 24.36 175.6 6.69 175.87 6.7 172.29 24.36 172.45"/><polygon class="cls-8" points="25.89 153.89 25.39 157.01 7.87 154.74 8.43 151.2 25.89 153.89"/><path class="cls-8" d="M30,135.76l-.48,1.5c-.23.75-.41,1.52-.41,1.52l-17-4.77s.21-.87.47-1.73l.55-1.71Z"/><path class="cls-9" d="M25.4,156.91l-.24,2.41-.26,2.47c-.09.9-.23,1.87-.25,2.83l-.28,5.31c0,1.45,0,2.41,0,2.41l-17.92-.18s0-1.1,0-2.75l.32-6c0-1.1.17-2.2.28-3.22l.29-2.81.28-2.74Z"/><path class="cls-9" d="M29.14,138.76l-.61,2.33-.64,2.39c-.23.88-.39,1.83-.59,2.78L26.71,149l-.27,1.28-.18,1.16-.37,2.39L8.18,151.13l.42-2.72.2-1.32.31-1.46.66-3.17c.24-1.08.42-2.16.68-3.16l.72-2.73.7-2.66Z"/><path class="cls-9" d="M35.49,121.21l-1,2.21c-.28.67-.65,1.43-1,2.27l-1,2.65-1,2.65c-.32.85-.54,1.66-.76,2.35l-.73,2.3-17.12-5.27.84-2.62c.26-.78.52-1.71.88-2.68l1.14-3,1.13-3c.37-1,.79-1.83,1.11-2.59l1.1-2.52Z"/><path class="cls-8" d="M4.77,128l-.58,1.81c-.28.91-.5,1.83-.5,1.83l-17-4.77s.25-1,.56-2l.64-2Z"/><path class="cls-9" d="M3.7,131.63,3,134.44l-.76,2.89c-.27,1.06-.47,2.21-.72,3.34L.77,144l-.32,1.54L.23,147l-.45,2.88-17.71-2.74.5-3.21.25-1.55.36-1.72.78-3.74c.28-1.27.51-2.55.81-3.73l.85-3.22.83-3.14Z"/><path class="cls-9" d="M11.37,110.43l-1.16,2.67c-.34.8-.77,1.73-1.17,2.74L7.84,119l-1.2,3.2c-.38,1-.65,2-.93,2.84l-.88,2.77-17.12-5.27,1-3.1c.31-.93.62-2,1-3.16l1.34-3.58,1.35-3.58c.44-1.14.92-2.17,1.3-3.07l1.3-3Z"/><path class="cls-8" d="M44.47,122s-.35.65-.64,1.32l-.58,1.35L19.13,113.9l.71-1.65c.37-.82.78-1.61.78-1.61Z"/><path class="cls-8" d="M46,102.21a15.36,15.36,0,0,0-.87,1.31l-.83,1.34L29.37,95.38l.95-1.52c.46-.77,1-1.49,1-1.49Z"/><path class="cls-8" d="M57.44,87.53s-.55.57-1,1.18l-1,1.21L42,78.39,43.14,77c.57-.7,1.19-1.34,1.19-1.34Z"/><path class="cls-8" d="M70.91,74.6l-.39.31-.81.72-1.19,1L56.9,63.37l1.35-1.19.93-.82.44-.35Z"/><path class="cls-9" d="M44.28,104.86l-1.28,2c-.81,1.2-1.71,2.91-2.66,4.59-.47.84-1,1.68-1.38,2.47l-1.09,2.22-1.07,2.16-16.17-7.71,1.22-2.46,1.25-2.53c.49-.91,1-1.86,1.57-2.82,1.08-1.92,2.11-3.86,3-5.24l1.46-2.33Z"/><path class="cls-9" d="M55.44,89.83l-1.57,1.84c-1,1.07-2.11,2.65-3.3,4.17-.58.77-1.21,1.51-1.72,2.26l-1.41,2-1.38,2-14.87-10,1.57-2.26,1.61-2.32c.59-.85,1.3-1.7,2-2.57,1.36-1.73,2.65-3.52,3.76-4.75l1.79-2.1Z"/><path class="cls-9" d="M68.53,76.67l-1.83,1.6-.89.77-.94.92-2,2c-1.43,1.31-2.72,2.76-3.72,3.82l-1.66,1.76-13.29-12,1.89-2c1.13-1.2,2.61-2.84,4.23-4.34l2.33-2.25,1.07-1,1-.88,2.07-1.82Z"/><path class="cls-9" d="M83.55,65.35l-2,1.32c-.62.38-1.32.87-2,1.41l-2.31,1.67c-1.61,1.1-3.09,2.35-4.24,3.25L71,74.52,59.57,60.73,61.73,59c1.3-1,3-2.44,4.81-3.69l2.63-1.9c.83-.62,1.62-1.17,2.33-1.61l2.31-1.5Z"/><path class="cls-8" d="M20.62,110.63s-.42.8-.78,1.61l-.71,1.65L-5,103.12l.85-1.95c.44-1,.92-1.91.92-1.91Z"/><path class="cls-8" d="M24,87.5s-.57.77-1.05,1.58l-1,1.61L7.07,81.21,8.2,79.42c.55-.91,1.17-1.76,1.17-1.76Z"/><path class="cls-8" d="M37.84,69.82s-.66.69-1.26,1.42l-1.23,1.45L22,61.16l1.37-1.61c.67-.82,1.4-1.58,1.4-1.58Z"/><path class="cls-8" d="M54,54.29l-.46.37-1,.86-1.43,1.26L39.53,43.47l1.59-1.39,1.09-1,.51-.41Z"/><path class="cls-9" d="M22,90.69l-1.55,2.47c-1,1.46-2.07,3.51-3.21,5.54-.56,1-1.15,2-1.66,3l-1.32,2.67L13,107-3.22,99.26l1.44-2.91,1.48-3C.28,92.29.92,91.16,1.55,90c1.27-2.27,2.51-4.56,3.58-6.19l1.72-2.76Z"/><path class="cls-9" d="M35.43,72.59,33.54,74.8c-1.17,1.3-2.54,3.19-4,5-.7.93-1.44,1.83-2.07,2.72L25.78,85l-1.67,2.39L9.25,77.4l1.86-2.67L13,72c.7-1,1.52-2,2.31-3,1.6-2,3.14-4.14,4.44-5.6l2.11-2.47Z"/><path class="cls-9" d="M51.17,56.76,49,58.68l-1.06.93-1.13,1.1-2.46,2.38c-1.71,1.59-3.28,3.31-4.48,4.59l-2,2.12-13.29-12,2.22-2.37c1.34-1.42,3.09-3.34,5-5.11l2.74-2.65,1.26-1.22,1.18-1,2.44-2.14Z"/><path class="cls-9" d="M69.19,43.18l-2.44,1.59c-.74.46-1.58,1-2.46,1.7l-2.78,2c-1.92,1.33-3.71,2.82-5.08,3.9l-2.28,1.82L42.71,40.4l2.54-2c1.53-1.21,3.53-2.86,5.66-4.34L54,31.8l1.42-1,1.31-.86,2.72-1.77Z"/><path class="cls-8" d="M2.1,72.78s-.66.9-1.23,1.85L-.31,76.52-15.22,67l1.3-2.07c.63-1,1.35-2,1.35-2Z"/><path class="cls-8" d="M18.24,52.11s-.76.81-1.47,1.66l-1.44,1.69L1.93,43.94l1.59-1.85c.78-.94,1.62-1.82,1.62-1.82Z"/><path class="cls-8" d="M37.14,34l-.54.44-1.15,1-1.67,1.46L22.17,23.56,24,22l1.26-1.1.59-.48Z"/><path class="cls-9" d="M15.42,55.34l-2.21,2.59c-1.36,1.53-3,3.72-4.66,5.87C7.73,64.89,6.87,65.95,6.14,67l-2,2.86-1.95,2.8-14.87-10,2.14-3.08,2.2-3.15c.81-1.15,1.75-2.31,2.65-3.51,1.84-2.36,3.63-4.77,5.12-6.45l2.42-2.85Z"/><path class="cls-9" d="M33.8,36.85,31.25,39.1,30,40.19l-1.33,1.28-2.88,2.78c-2,1.86-3.83,3.87-5.23,5.36l-2.33,2.48L5,40.07l2.55-2.73c1.54-1.63,3.56-3.83,5.74-5.88l3.16-3L17.87,27l1.35-1.2L22,23.35Z"/><path class="cls-9" d="M54.83,21,52,22.86l-1.37.91-1.49,1.07-3.24,2.34c-2.23,1.56-4.33,3.28-5.93,4.55l-2.66,2.12L25.85,20.06l2.91-2.33c1.75-1.39,4.06-3.28,6.51-5l3.55-2.56L40.46,9,42,8l3.12-2Z"/><path class="cls-8" d="M90.66,70.87l-.4.24-.85.56-1.24.81L73.81,50.31l1.51-1,1-.68.48-.29Z"/><polygon class="cls-8" points="102.81 54.98 99.93 56.31 92.51 40.28 95.77 38.77 102.81 54.98"/><polygon class="cls-8" points="120.45 48.76 117.42 49.67 112.33 32.76 115.77 31.73 120.45 48.76"/><polygon class="cls-8" points="138.8 45.1 135.66 45.56 133 28.09 136.56 27.58 138.8 45.1"/><path class="cls-9" d="M99.93,56.31l-2.21,1c-1.33.59-3,1.57-4.75,2.45s-3.39,1.91-4.66,2.63l-2.1,1.22L76.83,48.36,79.22,47c1.44-.82,3.3-2,5.28-3s3.89-2.09,5.4-2.77l2.5-1.16Z"/><path class="cls-9" d="M117.52,49.64l-2.33.69c-1.39.43-3.21,1.13-5.05,1.75s-3.62,1.42-5,1.94l-2.25.91L95.79,38.5l2.56-1c1.54-.6,3.55-1.53,5.65-2.2s4.15-1.5,5.73-2l2.64-.79Z"/><path class="cls-9" d="M135.68,45.56l-2.41.35-5.25,1c-1,.16-1.9.42-2.78.64l-2.42.6-1.71.42a6,6,0,0,0-.64.17l-4.75-17.28s.26-.09.73-.2l1.94-.48,2.75-.68c1-.24,2.07-.54,3.16-.72l6-1.16,2.73-.4Z"/><path class="cls-9" d="M154.46,44h-.67c-.43,0-1,0-1.76,0l-5.35.24-5.33.5c-1.46.11-2.42.27-2.42.27l-2.25-17.77s1.09-.18,2.74-.31,3.84-.38,6-.56l6.07-.27c.83-.05,1.52-.06,2,0h.76Z"/><path class="cls-8" d="M76.83,48.36l-.48.29-1,.68-1.51,1L59.45,28.14,61.22,27l1.22-.79.57-.34Z"/><polygon class="cls-8" points="92.28 30.75 88.83 32.34 81.41 16.31 85.25 14.54 92.28 30.75"/><polygon class="cls-8" points="113.45 23.29 109.81 24.38 104.71 7.46 108.77 6.25 113.45 23.29"/><polygon class="cls-8" points="135.46 18.9 131.69 19.45 129.03 1.98 133.22 1.38 135.46 18.9"/><path class="cls-9" d="M88.83,32.34l-2.64,1.23c-1.59.72-3.63,1.87-5.7,2.93s-4.07,2.28-5.58,3.15l-2.52,1.47L63,25.85l2.8-1.64c1.69-1,3.89-2.34,6.21-3.5s4.57-2.45,6.35-3.26l2.94-1.37Z"/><path class="cls-9" d="M109.93,24.34l-2.79.83c-1.67.52-3.85,1.34-6.06,2.1s-4.34,1.7-6,2.33l-2.7,1.1L85.29,14.26l3-1.23c1.81-.71,4.18-1.78,6.65-2.59s4.88-1.76,6.74-2.33l3.11-.93Z"/><path class="cls-9" d="M131.72,19.44l-2.88.42-6.29,1.23c-1.15.2-2.28.5-3.34.76l-2.9.71-2.05.5c-.5.11-.77.21-.77.21L108.73,6s.31-.1.86-.23l2.28-.56,3.23-.79c1.18-.29,2.44-.62,3.71-.85l7-1.36L129,1.73Z"/><path class="cls-9" d="M154.21,17.63h-.8c-.51,0-1.24,0-2.11,0l-6.41.29c-2.32.19-4.64.43-6.39.59s-2.9.33-2.9.33L133.36,1.1s1.28-.21,3.22-.37,4.52-.45,7.1-.65l7.12-.32c1-.06,1.78-.07,2.35-.05H154Z"/><path class="cls-8" d="M63,25.85l-.57.34L61.22,27l-1.77,1.15L45.09,6l2-1.32,1.4-.91.65-.39Z"/><polygon class="cls-8" points="81.76 6.51 77.73 8.37 70.31 -7.66 74.73 -9.69 81.76 6.51"/><path class="cls-9" d="M77.73,8.37,74.65,9.8C72.8,10.65,70.42,12,68,13.22s-4.74,2.65-6.51,3.67l-2.93,1.72L49.18,3.34l3.21-1.89c1.94-1.12,4.48-2.68,7.14-4s5.26-2.81,7.29-3.74l3.38-1.57Z"/><path class="cls-9" d="M102.34-1,99.08,0c-1.95.6-4.5,1.55-7.07,2.44s-5.07,2-7,2.71L81.91,6.46,74.78-10l3.45-1.41c2.08-.82,4.81-2,7.64-3s5.62-2,7.75-2.68l3.57-1.07Z"/><polygon class="cls-8" points="157.52 52.56 154.54 52.54 154.29 26.13 157.9 26.15 157.52 52.56"/><polygon class="cls-8" points="176.38 45.64 173.23 45.14 175.5 27.62 179.06 28.18 176.38 45.64"/><path class="cls-8" d="M194.71,49.75l-1.51-.48-1.54-.4,4.67-17,1.74.45,1.72.54Z"/><path class="cls-8" d="M212.22,56.35s-.71-.36-1.45-.65l-1.46-.62,7-16.22,1.65.7c.84.33,1.64.74,1.64.74Z"/><path class="cls-9" d="M173.23,45.14l-2.43-.25-2.49-.26c-.91-.09-1.88-.23-2.86-.25l-5.36-.3c-.73,0-1.34,0-1.77,0h-.67l.26-17.91h.76c.48,0,1.17,0,2,0l6.07.33c1.11,0,2.2.18,3.24.28l2.82.3,2.75.28Z"/><path class="cls-9" d="M191.76,48.9l-2.36-.61L187,47.66c-.89-.22-1.85-.39-2.81-.59l-2.81-.58-1.29-.27L178.91,46l-2.42-.37,2.73-17.71,2.73.42,1.32.21,1.46.31,3.18.66c1.08.23,2.17.43,3.18.67l2.74.71,2.67.69Z"/><path class="cls-9" d="M209.34,55.1l-2.24-1c-1.32-.62-3.17-1.24-5-1.92l-2.68-1L197,50.49l-2.32-.73,5.15-17.16,2.63.83,2.7.84,3,1.12c2.07.77,4.16,1.49,5.66,2.18l2.54,1.08Z"/><path class="cls-9" d="M226,63.77,224,62.5c-1.22-.79-3-1.64-4.67-2.6s-3.45-1.78-4.76-2.42l-2.18-1.06,7.52-16.26,2.48,1.21c1.49.73,3.49,1.65,5.41,2.75s3.9,2.06,5.3,3l2.35,1.44Z"/><polygon class="cls-8" points="157.9 26.15 154.29 26.13 154.04 -0.29 158.28 -0.27 157.9 26.15"/><polygon class="cls-8" points="180.39 19.53 176.63 18.95 178.9 1.43 183.07 2.07 180.39 19.53"/><path class="cls-8" d="M202.29,24.45l-1.82-.57-1.84-.48,4.67-17,2,.54,2,.63Z"/><path class="cls-8" d="M223.29,32.37s-.85-.43-1.73-.78l-1.75-.74,7-16.22,1.94.83c1,.4,1.93.87,1.93.87Z"/><path class="cls-9" d="M176.63,18.94l-2.9-.3-3-.31c-1.09-.11-2.25-.26-3.41-.3l-6.41-.35c-.87-.05-1.6,0-2.11,0H158l.26-17.91h.89c.57,0,1.38,0,2.35,0l7.11.39c1.3,0,2.58.21,3.79.33l3.3.35,3.22.34Z"/><path class="cls-9" d="M198.76,23.43l-2.82-.73L193,21.94c-1.06-.26-2.21-.47-3.35-.71l-3.36-.7-1.54-.32L183.4,20l-2.88-.45,2.73-17.71,3.2.5,1.55.25,1.71.35,3.73.77c1.27.27,2.54.51,3.72.8l3.22.83,3.14.82Z"/><path class="cls-9" d="M219.83,30.85l-2.68-1.14c-1.59-.73-3.8-1.49-6-2.31l-3.21-1.18-2.85-.89-2.78-.87,5.15-17.16,3.09,1,3.17,1,3.58,1.31c2.43.9,4.88,1.76,6.65,2.57l3,1.27Z"/><path class="cls-9" d="M239.85,41.26l-2.49-1.52c-1.47-.94-3.57-2-5.6-3.13s-4.14-2.14-5.71-2.91l-2.62-1.27,7.52-16.26,2.92,1.41c1.75.85,4.1,1.95,6.36,3.23s4.58,2.44,6.23,3.48L249.22,26Z"/><path class="cls-8" d="M234.35,8.38s-1-.49-2-.91l-2-.87,7-16.22,2.23,1c1.12.46,2.21,1,2.21,1Z"/><path class="cls-9" d="M230.31,6.61l-3.13-1.33c-1.86-.84-4.42-1.74-7-2.69l-3.75-1.37-3.32-1-3.24-1L215.05-18l3.55,1.11,3.64,1.15,4.11,1.5c2.79,1,5.6,2,7.64,3l3.43,1.46Z"/><path class="cls-9" d="M253.67,18.74,250.76,17c-1.73-1.09-4.15-2.32-6.53-3.65s-4.83-2.5-6.66-3.39l-3.06-1.48L242-7.81l3.36,1.62c2,1,4.71,2.25,7.31,3.72s5.26,2.81,7.16,4L263,3.47Z"/><path class="cls-8" d="M224.12,72.56s-.15-.11-.39-.25l-.87-.53L221.58,71,235.4,48.5l1.54.94,1.06.64c.29.17.47.3.47.3Z"/><polygon class="cls-8" points="243.69 76.68 241.24 74.66 252.51 61.05 255.28 63.35 243.69 76.68"/><polygon class="cls-8" points="256.9 89.93 254.77 87.58 267.85 75.69 270.26 78.36 256.9 89.93"/><polygon class="cls-8" points="268.11 104.89 266.34 102.26 280.96 92.34 282.96 95.32 268.11 104.89"/><path class="cls-9" d="M241.24,74.66l-1.87-1.56c-1.13-.92-2.72-2-4.26-3.23L234,69c-.39-.28-.79-.53-1.16-.79l-2.06-1.4-2-1.37,9.73-15,2.28,1.55,2.34,1.59c.43.29.88.58,1.32.9l1.31,1c1.75,1.34,3.55,2.63,4.83,3.67l2.12,1.76Z"/><path class="cls-9" d="M254.85,87.66l-1.62-1.81c-1-1.06-2.4-2.41-3.76-3.8l-1-1-1-.94-1.84-1.68-1.79-1.64,11.77-13.51,2,1.86L259.66,67l1.18,1.07L262,69.25c1.55,1.57,3.13,3.12,4.26,4.32l1.85,2Z"/><path class="cls-9" d="M266.35,102.28l-1.35-2L261.82,96c-.56-.8-1.19-1.53-1.77-2.24l-1.58-1.92-1.11-1.37a5.51,5.51,0,0,0-.44-.5l13.54-11.73a7.06,7.06,0,0,1,.5.57l1.27,1.55L274,82.52c.66.8,1.37,1.64,2,2.54l3.62,4.87,1.53,2.29Z"/><path class="cls-9" d="M275.75,118.52l-1-2.19-2.54-4.69c-.91-1.71-2-3.33-2.72-4.59l-.9-1.51c-.22-.36-.37-.56-.37-.56l15.07-9.69s.16.22.41.63l1,1.71c.83,1.43,2,3.27,3.09,5.22l2.88,5.33,1.19,2.49Z"/><path class="cls-8" d="M238.47,50.39s-.18-.13-.47-.3l-1.06-.64-1.54-.94L249.22,26,251,27.09l1.24.76c.34.2.56.36.56.36Z"/><polygon class="cls-8" points="261.02 56.74 258.09 54.31 269.36 40.71 272.61 43.41 261.02 56.74"/><polygon class="cls-8" points="276.87 72.63 274.32 69.81 287.39 57.92 290.22 61.06 276.87 72.63"/><polygon class="cls-8" points="290.32 90.58 288.2 87.43 302.82 77.51 305.17 81.02 290.32 90.58"/><path class="cls-9" d="M258.09,54.31l-2.24-1.86c-1.36-1.1-3.25-2.47-5.1-3.88l-1.39-1c-.47-.34-.94-.64-1.39-1l-2.47-1.68-2.41-1.64,9.73-15L255.51,30l2.75,1.87c.5.35,1,.69,1.54,1.06l1.55,1.16c2.07,1.57,4.17,3.09,5.68,4.32l2.5,2.07Z"/><path class="cls-9" d="M274.41,69.9l-2-2.16c-1.2-1.27-2.87-2.9-4.5-4.56l-1.23-1.23-1.24-1.14-2.2-2-2.15-2,11.77-13.51,2.4,2.18,2.45,2.24L279.12,49l1.37,1.37c1.82,1.85,3.67,3.66,5,5.08l2.18,2.4Z"/><path class="cls-9" d="M288.21,87.45,286.59,85l-3.82-5.15c-.68-1-1.43-1.84-2.12-2.68l-1.89-2.31-1.34-1.63a7.85,7.85,0,0,0-.53-.6l13.54-11.73s.23.23.58.67l1.49,1.82L294.62,66c.77.94,1.61,1.93,2.36,3l4.25,5.73L303,77.39Z"/><path class="cls-9" d="M299.51,107l-1.26-2.63-3-5.64c-1.1-2.05-2.38-4-3.27-5.51l-1.09-1.81c-.27-.44-.44-.67-.44-.67L305.48,81s.19.26.49.75l1.22,2c1,1.68,2.4,3.86,3.64,6.14l3.39,6.29,1.41,2.93Z"/><path class="cls-8" d="M252.82,28.21s-.22-.15-.56-.36L251,27.09,249.22,26,263,3.47l2.07,1.27,1.42.88c.39.24.64.41.64.41Z"/><polygon class="cls-8" points="278.35 36.81 274.94 33.97 286.21 20.36 289.94 23.47 278.35 36.81"/><polygon class="cls-8" points="296.83 55.33 293.87 52.03 306.94 40.15 310.19 43.76 296.83 55.33"/><path class="cls-9" d="M274.94,34l-2.62-2.17c-1.58-1.28-3.78-2.88-5.95-4.53l-1.62-1.22c-.54-.39-1.09-.75-1.62-1.11l-2.88-2-2.81-1.91,9.73-15,3.09,2.09,3.16,2.15,1.77,1.22L277,12.83c2.38,1.8,4.79,3.56,6.52,5l2.87,2.38Z"/><path class="cls-9" d="M294,52.15l-2.28-2.52c-1.4-1.48-3.34-3.39-5.25-5.32L285,42.87l-1.45-1.33L281,39.19l-2.51-2.29,11.77-13.51L293,25.9l2.82,2.58,1.58,1.46L299,31.51c2.1,2.12,4.22,4.21,5.75,5.84l2.5,2.76Z"/><path class="cls-9" d="M310.08,72.62l-1.9-2.82-4.45-6c-.79-1.11-1.67-2.15-2.48-3.13L299,58l-1.57-1.9c-.37-.46-.61-.71-.61-.71L310.4,43.62s.26.27.67.77l1.72,2.09,2.42,3c.88,1.08,1.84,2.23,2.71,3.44l4.88,6.59,2.09,3.09Z"/><polygon class="cls-8" points="269.39 124.9 268.1 122.24 291.86 110.69 293.42 113.93 269.39 124.9"/><polygon class="cls-8" points="283.59 138.81 282.66 135.8 299.49 130.44 300.56 133.87 283.59 138.81"/><polygon class="cls-8" points="287.46 156.96 286.99 153.85 304.42 151 304.96 154.54 287.46 156.96"/><polygon class="cls-8" points="288.64 175.48 288.64 172.33 306.31 172.05 306.3 175.64 288.64 175.48"/><path class="cls-9" d="M282.66,135.8l-.72-2.3-1.82-5c-.68-1.81-1.49-3.57-2-4.91l-.67-1.62-.29-.6,16.3-7.44.33.68.77,1.84c.62,1.53,1.54,3.54,2.31,5.6l2.08,5.69.82,2.63Z"/><path class="cls-9" d="M287,154l-.1-.66c-.08-.41-.12-1-.28-1.72l-1.06-5.2c-.43-1.88-1-3.74-1.3-5.14-.18-.7-.31-1.29-.44-1.69l-.2-.63,17.21-5,.23.72c.14.46.29,1.13.5,1.93.39,1.6,1,3.72,1.47,5.87l1.21,5.93c.18.8.24,1.49.33,2l.11.75Z"/><path class="cls-9" d="M288.65,172.35a23,23,0,0,0-.07-2.41l-.27-5.3-.54-5.28a17.33,17.33,0,0,0-.21-1.73l-.1-.65,17.75-2.45.11.75c.08.47.18,1.16.24,2l.61,6,.31,6c.11,1.65.07,2.75.07,2.75Z"/><polygon class="cls-8" points="293.42 113.93 291.86 110.69 315.62 99.14 317.45 102.97 293.42 113.93"/><path class="cls-9" d="M307.83,127.79,307,125l-2.2-6c-.82-2.18-1.79-4.3-2.44-5.92l-.82-1.95-.35-.72,16.3-7.44.38.81.92,2.17c.74,1.8,1.81,4.17,2.72,6.61l2.45,6.72,1,3.1Z"/></g></g></g><g id="Layer_2" data-name="Layer 2"><path class="cls-10" d="M139.48,12.2v6.28h-2v-15h4.25a9.29,9.29,0,0,1,2.47.29,4.71,4.71,0,0,1,1.72.83,3.34,3.34,0,0,1,1,1.32,4.41,4.41,0,0,1,.33,1.73A4.33,4.33,0,0,1,147,9.09a3.94,3.94,0,0,1-.73,1.24,4.36,4.36,0,0,1-1.17.94,5.74,5.74,0,0,1-1.56.59,2.16,2.16,0,0,1,.67.64l4.39,6h-1.81a.89.89,0,0,1-.82-.43L142,12.67a1.14,1.14,0,0,0-.39-.36,1.41,1.41,0,0,0-.63-.11Zm0-1.48h2.13a5.19,5.19,0,0,0,1.57-.22,3.19,3.19,0,0,0,1.13-.61A2.53,2.53,0,0,0,145,9a3.08,3.08,0,0,0,.23-1.21,2.4,2.4,0,0,0-.89-2A4.29,4.29,0,0,0,141.7,5h-2.23Z"/><path class="cls-10" d="M153,4.51a1.19,1.19,0,0,1-.11.51,1.46,1.46,0,0,1-.29.42,1.37,1.37,0,0,1-.43.29,1.28,1.28,0,0,1-.51.1,1.24,1.24,0,0,1-.51-.1,1.4,1.4,0,0,1-.71-.71,1.25,1.25,0,0,1-.1-.51,1.33,1.33,0,0,1,.1-.52,1.35,1.35,0,0,1,.29-.43,1.38,1.38,0,0,1,.42-.29,1.24,1.24,0,0,1,.51-.1,1.28,1.28,0,0,1,.51.1,1.37,1.37,0,0,1,.43.29,1.43,1.43,0,0,1,.29.43A1.26,1.26,0,0,1,153,4.51Zm-.42,3.34V18.48h-1.87V7.84Z"/><path class="cls-10" d="M155.84,22.08V7.84H157a.48.48,0,0,1,.5.39l.16,1.26a5.67,5.67,0,0,1,1.56-1.33,4,4,0,0,1,2-.5,3.84,3.84,0,0,1,1.66.35,3.42,3.42,0,0,1,1.27,1,5,5,0,0,1,.81,1.71,8.74,8.74,0,0,1,.28,2.34,7.34,7.34,0,0,1-.31,2.19A5.33,5.33,0,0,1,164,17a4.21,4.21,0,0,1-1.44,1.17,4.27,4.27,0,0,1-1.93.43,4,4,0,0,1-1.69-.33,3.78,3.78,0,0,1-1.23-.92v4.7Zm4.74-12.92a3,3,0,0,0-1.6.42,4.63,4.63,0,0,0-1.26,1.19v5.15a3,3,0,0,0,1.13,1,3.24,3.24,0,0,0,1.37.28,2.68,2.68,0,0,0,2.28-1.06,5,5,0,0,0,.8-3,7.57,7.57,0,0,0-.18-1.78,3.51,3.51,0,0,0-.53-1.22,2.06,2.06,0,0,0-.85-.7A2.82,2.82,0,0,0,160.58,9.17Z"/><path class="cls-10" d="M171.65,7.68a4.75,4.75,0,0,1,1.76.32,4,4,0,0,1,1.4.92,4.2,4.2,0,0,1,.92,1.49,5.76,5.76,0,0,1,.33,2A1.21,1.21,0,0,1,176,13a.39.39,0,0,1-.36.15h-7.08a5.86,5.86,0,0,0,.27,1.75,3.58,3.58,0,0,0,.69,1.24,2.78,2.78,0,0,0,1,.75,3.61,3.61,0,0,0,1.37.25,4,4,0,0,0,1.21-.16,5.76,5.76,0,0,0,.88-.35,6.64,6.64,0,0,0,.61-.35.81.81,0,0,1,.42-.16.41.41,0,0,1,.36.18l.52.68a3.53,3.53,0,0,1-.83.73,5.17,5.17,0,0,1-1,.51,6.56,6.56,0,0,1-1.14.3,7,7,0,0,1-1.17.1,5.42,5.42,0,0,1-2-.37,4.47,4.47,0,0,1-1.61-1.09,5,5,0,0,1-1.05-1.78,7.24,7.24,0,0,1-.38-2.44,6.2,6.2,0,0,1,.34-2.08,4.9,4.9,0,0,1,1-1.67,4.53,4.53,0,0,1,1.56-1.11A5.15,5.15,0,0,1,171.65,7.68Zm0,1.38a2.87,2.87,0,0,0-2.13.78,3.68,3.68,0,0,0-1,2.17h5.79a3.78,3.78,0,0,0-.18-1.19,2.65,2.65,0,0,0-.53-.93,2.35,2.35,0,0,0-.84-.61A2.86,2.86,0,0,0,171.69,9.05Z"/><path class="cls-10" d="M262.13,51.27l-4.77,4.08L256,53.81,267.47,44l2.76,3.23a9.3,9.3,0,0,1,1.39,2.06,4.71,4.71,0,0,1,.48,1.85,3.35,3.35,0,0,1-.35,1.62,4.41,4.41,0,0,1-1.1,1.37,4.33,4.33,0,0,1-1.3.78,3.94,3.94,0,0,1-1.42.26,4.38,4.38,0,0,1-1.47-.27,5.76,5.76,0,0,1-1.46-.8,2.16,2.16,0,0,1,0,.93l-1.69,7.22-1.17-1.37a.89.89,0,0,1-.21-.9l1.54-6.46a1.14,1.14,0,0,0,0-.53,1.4,1.4,0,0,0-.33-.55Zm1.12-1,1.39,1.62A5.19,5.19,0,0,0,265.82,53a3.2,3.2,0,0,0,1.2.47,2.51,2.51,0,0,0,1.16-.09,3.06,3.06,0,0,0,1.07-.61,2.4,2.4,0,0,0,1-2A4.29,4.29,0,0,0,269,48.3l-1.45-1.69Z"/><path class="cls-10" d="M275.52,59.94a5.47,5.47,0,0,1,1.07,1.85,4.44,4.44,0,0,1,.2,1.93,4.88,4.88,0,0,1-.66,1.89,7.44,7.44,0,0,1-3.44,2.95,4.88,4.88,0,0,1-2,.35,4.38,4.38,0,0,1-1.87-.5,6,6,0,0,1-2.74-3.2,4.42,4.42,0,0,1-.21-1.93,4.91,4.91,0,0,1,.65-1.89A7.36,7.36,0,0,1,270,58.45a4.9,4.9,0,0,1,2-.35,4.48,4.48,0,0,1,1.88.5A5.46,5.46,0,0,1,275.52,59.94Zm-7.21,6.17a2.73,2.73,0,0,0,2.33,1.1,6,6,0,0,0,4.49-3.84,2.73,2.73,0,0,0-.72-2.48,3.26,3.26,0,0,0-1.11-.88,2.6,2.6,0,0,0-1.24-.23,3.48,3.48,0,0,0-1.34.38,7.47,7.47,0,0,0-2.57,2.2,3.43,3.43,0,0,0-.57,1.26,2.62,2.62,0,0,0,0,1.25A3.26,3.26,0,0,0,268.3,66.12Z"/><path class="cls-10" d="M274.07,75.13a2.56,2.56,0,0,1-.73-1.93,2.81,2.81,0,0,1,1.1-1.83l4.95-4.23-.83-1a.42.42,0,0,1-.11-.28.39.39,0,0,1,.16-.29l.57-.48,1.3,1.18,2.78-1.81a.4.4,0,0,1,.28-.06.43.43,0,0,1,.27.16l.61.72-2.78,2.38,2,2.31-1,.88-2-2.31-4.85,4.15a1.35,1.35,0,0,0-.55.9,1.14,1.14,0,0,0,.3.85,1.48,1.48,0,0,0,.39.34,2.19,2.19,0,0,0,.37.17l.31.09a.35.35,0,0,1,.19.1.32.32,0,0,1,0,.32l-.32,1a3.49,3.49,0,0,1-1.3-.43A4,4,0,0,1,274.07,75.13Z"/><path class="cls-10" d="M279.16,81.08a2.56,2.56,0,0,1-.73-1.93,2.81,2.81,0,0,1,1.1-1.83l4.95-4.23-.83-1a.42.42,0,0,1-.11-.28.39.39,0,0,1,.16-.29l.57-.48,1.3,1.18,2.78-1.81a.4.4,0,0,1,.28-.06.43.43,0,0,1,.27.16l.61.72-2.78,2.38,2,2.31-1,.88-2-2.31-4.85,4.15a1.35,1.35,0,0,0-.55.9,1.14,1.14,0,0,0,.3.85,1.48,1.48,0,0,0,.39.34,2.19,2.19,0,0,0,.37.17l.31.09a.35.35,0,0,1,.19.1.32.32,0,0,1,0,.32l-.32,1a3.49,3.49,0,0,1-1.3-.43A4,4,0,0,1,279.16,81.08Z"/><path class="cls-10" d="M293.23,80.65a4.75,4.75,0,0,1,.9,1.55,4,4,0,0,1,.21,1.66,4.2,4.2,0,0,1-.54,1.67,5.76,5.76,0,0,1-1.32,1.57,1.21,1.21,0,0,1-.51.31.39.39,0,0,1-.34-.18L287,81.85a5.86,5.86,0,0,0-1.15,1.35,3.58,3.58,0,0,0-.49,1.34,2.78,2.78,0,0,0,.12,1.28,3.61,3.61,0,0,0,.7,1.2,4,4,0,0,0,.91.82,5.76,5.76,0,0,0,.84.44,6.64,6.64,0,0,0,.67.24.81.81,0,0,1,.4.22.41.41,0,0,1,.1.39l-.18.84a3.53,3.53,0,0,1-1.09-.16,5.17,5.17,0,0,1-1.06-.45,6.56,6.56,0,0,1-1-.67,7,7,0,0,1-.83-.82,5.42,5.42,0,0,1-1-1.79,4.47,4.47,0,0,1-.21-1.93,5,5,0,0,1,.67-2A7.24,7.24,0,0,1,286,80.3a6.2,6.2,0,0,1,1.8-1.09,4.9,4.9,0,0,1,1.91-.34,4.53,4.53,0,0,1,1.86.46A5.15,5.15,0,0,1,293.23,80.65Zm-1,.93a2.87,2.87,0,0,0-2-1.11,3.68,3.68,0,0,0-2.28.68l3.76,4.4a3.78,3.78,0,0,0,.79-.91,2.65,2.65,0,0,0,.37-1,2.35,2.35,0,0,0-.09-1A2.86,2.86,0,0,0,292.22,81.57Z"/><path class="cls-10" d="M289.44,92.83l8.08-6.92.72.85a.48.48,0,0,1,0,.64l-.78.86a6,6,0,0,1,1.95.37,4,4,0,0,1,1.65,1.2,3.84,3.84,0,0,1,.78,1.36,3,3,0,0,1,.1,1.38,3.63,3.63,0,0,1-.53,1.34,5.54,5.54,0,0,1-1.1,1.25l-5.15,4.4L294,98.14l5.15-4.4a2.86,2.86,0,0,0,1.07-1.64,2.06,2.06,0,0,0-.59-1.71,3.14,3.14,0,0,0-1.31-.92,5.09,5.09,0,0,0-1.69-.31l-6,5.09Z"/><path class="cls-10" d="M16,93.38a4.2,4.2,0,0,0,.81-1.49A3.51,3.51,0,0,0,17,90.37a3.86,3.86,0,0,0-.56-1.46,5.35,5.35,0,0,0-1.17-1.3l-7.07-5.8,1.28-1.57L16.51,86a6.87,6.87,0,0,1,1.61,1.85A5.61,5.61,0,0,1,18.86,90a5.41,5.41,0,0,1-.21,2.27,6.46,6.46,0,0,1-1.23,2.23,6.46,6.46,0,0,1-1.94,1.64,5.48,5.48,0,0,1-2.18.65,5.57,5.57,0,0,1-2.25-.3,6.87,6.87,0,0,1-2.13-1.21l-7.07-5.8,1.28-1.57,7.07,5.79a5.36,5.36,0,0,0,1.51.89,3.85,3.85,0,0,0,1.54.26,3.54,3.54,0,0,0,1.48-.4A4.18,4.18,0,0,0,16,93.38Z"/><path class="cls-10" d="M23.11,87.3l-8.23-6.74.71-.86a.48.48,0,0,1,.62-.14l1,.62a6,6,0,0,1,0-2,4,4,0,0,1,.89-1.83,3.85,3.85,0,0,1,1.2-1A3,3,0,0,1,20.64,75a3.63,3.63,0,0,1,1.42.29,5.54,5.54,0,0,1,1.42.86l5.24,4.29L27.53,81.9l-5.24-4.29a2.86,2.86,0,0,0-1.8-.76,2.06,2.06,0,0,0-1.58.88,3.13,3.13,0,0,0-.67,1.45,5.06,5.06,0,0,0,0,1.71l6.06,5Z"/><path class="cls-10" d="M30.51,78.27l-8.23-6.74L23,70.7a.59.59,0,0,1,.36-.25.72.72,0,0,1,.41.13l1.36,1a4.86,4.86,0,0,1-.49-2.15A3.18,3.18,0,0,1,25.89,67a2.78,2.78,0,0,1,.63-.34l.93,1.07a.32.32,0,0,1,0,.42,1.64,1.64,0,0,1-.36.29,2.85,2.85,0,0,0-.62.59,2.41,2.41,0,0,0-.6,1.62,4.26,4.26,0,0,0,.58,1.89l5.24,4.29Z"/><path class="cls-10" d="M26.64,60.93a1.19,1.19,0,0,1,.32.41,1.46,1.46,0,0,1,.14.49,1.37,1.37,0,0,1,0,.51,1.28,1.28,0,0,1-.24.46,1.24,1.24,0,0,1-.4.33,1.4,1.4,0,0,1-1,.1A1.25,1.25,0,0,1,25,63a1.33,1.33,0,0,1-.34-.41,1.35,1.35,0,0,1-.15-.5,1.38,1.38,0,0,1,0-.51,1.24,1.24,0,0,1,.24-.46,1.28,1.28,0,0,1,.41-.33,1.37,1.37,0,0,1,.49-.15,1.43,1.43,0,0,1,.52,0A1.26,1.26,0,0,1,26.64,60.93ZM29,63.37l8.23,6.74L36,71.56l-8.23-6.74Z"/><path class="cls-10" d="M42.06,69.85l-11-9,.71-.86a.48.48,0,0,1,.62-.14l1.07.68a5.67,5.67,0,0,1,0-2.05,4,4,0,0,1,.89-1.88,3.84,3.84,0,0,1,1.32-1.06,3.42,3.42,0,0,1,1.61-.32,5,5,0,0,1,1.83.46,8.74,8.74,0,0,1,2,1.26,7.34,7.34,0,0,1,1.49,1.63,5.33,5.33,0,0,1,.78,1.81,4.21,4.21,0,0,1,0,1.86A4.27,4.27,0,0,1,42.43,64a4,4,0,0,1-1.32,1.1,3.78,3.78,0,0,1-1.5.37l3.64,3ZM35.07,58a3,3,0,0,0-.69,1.5,4.63,4.63,0,0,0,.12,1.73l4,3.26A3,3,0,0,0,40,64.24,3.24,3.24,0,0,0,41,63.36a2.68,2.68,0,0,0,.62-2.43,5,5,0,0,0-1.83-2.53,7.57,7.57,0,0,0-1.5-1A3.51,3.51,0,0,0,37.05,57a2.06,2.06,0,0,0-1.08.22A2.82,2.82,0,0,0,35.07,58Z"/><path class="cls-10" d="M40.94,48.49a4.75,4.75,0,0,1,1.37-1.16,4,4,0,0,1,1.6-.49,4.2,4.2,0,0,1,1.73.23,5.76,5.76,0,0,1,1.77,1,1.21,1.21,0,0,1,.39.45.39.39,0,0,1-.11.37l-4.49,5.47a5.86,5.86,0,0,0,1.53.9,3.58,3.58,0,0,0,1.4.25,2.78,2.78,0,0,0,1.24-.34,3.61,3.61,0,0,0,1.06-.9,4,4,0,0,0,.64-1,5.76,5.76,0,0,0,.28-.9,6.64,6.64,0,0,0,.12-.7.81.81,0,0,1,.14-.43.41.41,0,0,1,.36-.16l.86,0a3.53,3.53,0,0,1,0,1.1,5.17,5.17,0,0,1-.26,1.12,6.56,6.56,0,0,1-.49,1.07,7,7,0,0,1-.66,1,5.42,5.42,0,0,1-1.58,1.34,4.47,4.47,0,0,1-1.86.55,5,5,0,0,1-2-.31,7.24,7.24,0,0,1-2.12-1.25,6.2,6.2,0,0,1-1.39-1.58,4.9,4.9,0,0,1-.67-1.82,4.53,4.53,0,0,1,.13-1.92A5.15,5.15,0,0,1,40.94,48.49Zm1.09.84a2.87,2.87,0,0,0-.75,2.14,3.68,3.68,0,0,0,1.07,2.12L46,49.12a3.78,3.78,0,0,0-1-.62,2.65,2.65,0,0,0-1.06-.19,2.35,2.35,0,0,0-1,.27A2.86,2.86,0,0,0,42,49.33Z"/></g></svg>